<svg xmlns="http://www.w3.org/2000/svg" viewBox="0 0 861.27 910.57"><defs><style>.cls-1{fill:#fff;}</style></defs><title>Asset 5</title><g id="Layer_2" data-name="Layer 2"><g id="Layer_1-2" data-name="Layer 1"><path class="cls-1" d="M248.59,756.66c10.71,6,21.16,12.54,32.21,17.82,15.81,7.56,32,14.44,48.15,21.15,21.92,9.09,45.34,12.83,68.16,18.76,10,2.62,19.59,7.13,29.3,11,21.22,8.36,42.63,7.09,64.14,1.46q13.5-3.52,26.94-7.26c9.88-2.75,18-8.63,25.25-15.5,5.92-5.58,11.42-11.62,16.79-17.72,8.42-9.56,19.09-16.08,29.89-22.27,21.52-12.35,38.34-29.43,52.38-49.62,9.76-14,20.06-27.74,29.66-41.9,11.55-17,18.16-36.08,21.55-56.31a12.17,12.17,0,0,1,2.45-5.57c.78,4,1.68,8,2.31,12,.67,4.24,3.19,5.1,6.85,4.1,4.6-1.26,6.82-4.69,8.67-8.88,6.84-15.47,14.07-30.77,20.91-46.24,2.45-5.55,4.87-11.28,6-17.18.71-3.65-.93-7.79-1.67-11.69s-1.9-8-2.51-12c-.76-5-1.14-10-1.69-15,5.11,2,9.53,12.33,8.71,17.36-.87,5.31-.2,10.87-.2,16.32l2.17.35c1.24-3.71,2.47-7.42,3.84-11.5l3.19,2.16c3.19-.48,3.64-7.12.25-14.8L749.93,534l-1.57.25c-.32-2.26-1.36-4.71-.81-6.73,1.61-5.9,3.94-11.6,5.81-17.44a38.9,38.9,0,0,0,.95-6l-1.61-.5-6.6,15.36-.93-.25a9.83,9.83,0,0,1-.42-3.07c.93-5,1.57-10.06,3.23-14.79.94-2.69,4.07-4.54,5.49-7.16,4-7.37,4.07-15.54,4.18-23.67a78.54,78.54,0,0,1,.62-8c.36-3.29-1.16-4.67-4.06-3.38a146.68,146.68,0,0,0-16,8c-5.73,3.45-5.86,5-2.52,11.69l-3.45,3c5.11-.8,5.2,1.71,3.76,5.2l1.65-.11c.76-5.43,1.53-10.85,2.47-17.52,1,2.6,2,4.38,2.35,6.29a16.16,16.16,0,0,1,0,6.46q-2.88,11.71-6.36,23.27c-.38,1.26-2.14,2.11-4.2,4,.3-5.76.54-10.12.8-15.07l-5.22,4.6c-1.64-3.56-3.19-6.55-4.4-9.67-1.09-2.82-2.88-3.12-4.17-.76-3.15,5.79-6,11.77-8.59,17.83-1.12,2.6-.47,4.73,2.56,6.52,4.66,2.74,8,6.78,8.79,12.64.54,3.91,2.26,7.63,3.2,11.5,1.54,6.29,1,6.93-5.43,6.74-1,0-1.94.1-2.47.12a56.75,56.75,0,0,0-3.27-7.31c-.67-1.09-2.46-2.31-3.5-2.13s-2.23,2-2.48,3.25C706.68,542.77,706,548.39,705,554a23.35,23.35,0,0,1-1.76,4.46l-1.65-.33c0-1.31-.07-2.62,0-3.93,1.35-23.39,2.8-46.78,4-70.18.57-10.67-2.8-20.67-6-30.68-.63-2-.94-4.07-1.74-7.67l5.59,4c0-10.35-.2-20.84.06-31.33.23-9.54.31-19.18,1.86-28.54.46-2.75,2.86-5.85,3.16-9.22.39-4.49.61-9,1-13.49a82.62,82.62,0,0,1,1-8.9c1-5.29.36-10.16-2.72-14.66a6,6,0,0,1-.88-2.32c-.82-4.81-1.59-9.63-2.42-14.74,3.14.16,4.2-2.27,3.9-5.51-.86-9.4-1.55-18.84-2.86-28.18-1-7.1-1.84-14.35-6.91-20.21-1.88-2.17-3-5-4.31-7.64-1.55-3,.46-5.56,5.1-6l-2.68-3.64,3.52-2.44L698,247l-2.85,1.31c-.29-.51-.65-1-.57-1,3.81-4.5-.89-7.78-1.8-11.52s-2.92-7.41-4.06-11.22c-.43-1.41.22-3.14.38-4.72l1.43-.28c.91,1.27,2.24,2.41,2.67,3.82C697.9,238.88,703,254.3,707,270c2.72,10.84,4,22.07,5.5,33.18a162.57,162.57,0,0,1,1.44,20.68c.07,9.91-.58,19.83-.65,29.75,0,5.3.54,10.6.77,15.9.3,7.07.34,14.15.84,21.2.36,5,1,10.13,5.53,13.65.26-4.38-.24-8.88.93-12.88,2.51-8.59,3.05-17.2,2.65-26.05-.21-4.52.53-9.09.85-13.63,0-.33-.11-.81.06-1,5.38-4.93,1-9.3-.74-13.83a12.75,12.75,0,0,1-1.33-4.26c-.09-13.53-4.67-26-8.24-38.82-1.11-4-.28-8.53,0-12.8,1-14.21,3.7-28.43,0-42.61-3-11.39-5.65-22.89-9.52-34-1.88-5.38-6.18-9.91-9.38-14.83a5,5,0,0,1-1.08-2.69,405.85,405.85,0,0,1,94.91,101.36A426,426,0,0,1,846.2,414.6c12,45.28,16.44,91.15,14.7,138.28-4.59-2.76-9.12-1.6-12,2.4-.58.8-1,2-1.74,2.32a15.72,15.72,0,0,1-4,.61,31.45,31.45,0,0,1,.76-3.36,14.44,14.44,0,0,1,1.34-2.32l-3.52-2.62c4.94-8.86,4.9-11,.21-13.51-3.9-2.09-5,.2-5.35,2-3.61,1.67-6.53,2.55-8.91,4.21-7.77,5.4-12.7,4.1-16.13-4.6-1.58-4-5.27-5.4-10.39-3.89q-5.85,1.73-11.65,3.59c-.76.25-1.77.67-2,1.28-1.39,3.07-3.2,3.07-5.71,0-1.46,8.42-9.43,6.37-13.66,10-.33.28-2.25-1.51-3.54-2.08a30.45,30.45,0,0,0-6.09-2.09c-.58-.12-1.44,1.23-2.17,1.91.85.61,2,1.92,2.51,1.71,6.25-2.52,5.71,4.2,9,5.42-2.9,2.23-5,4.41-7.48,5.55-2,.89-4.51.49-7-.11-4.81,2.59-6.77,9.59-13.95,9.42,1,4.21-6.39,8.36.11,12.73l-4.73-.79c-1,6.74-8.08,11.33-5.92,19.53l-3.12-1.1c-3.27,7.15-6.07,14.76-10.14,21.62-2.32,3.9-6.18,7.88-10.27,9.54-8.33,3.37-13.18,9.37-16.9,17-3,6.07-6.15,12.06-9.15,18.12-1.61,3.23-3,6.56-4.56,9.83a21.82,21.82,0,0,1-1.83,3.53c-13.22,18-26,36.29-39.88,53.78-10.2,12.89-23,23.32-36.45,32.79-9.78,6.85-19.45,13.9-28.64,21.51-5.17,4.29-9.11,10-13.85,14.89-13,13.29-28.86,21.3-46.7,26.34-14.12,4-28.3,7.22-42.92,8-6.72.33-13.51-.69-20.26-1.1-5.13-.3-10.25-.56-15.37-.94-7.05-.52-14.18-.64-21.12-1.85-8.11-1.42-16-3.91-24.07-5.78-5.16-1.21-10.44-1.9-15.55-3.26a188.7,188.7,0,0,1-21.29-7c4-3.5,7.78-1.7,11.48-.75,17.52,4.49,35,9.12,52.54,13.55,2.92.74,6,.72,9.05,1,.16-.53.31-1.06.46-1.59-6-2.56-11.74-5.95-18-7.52-14.15-3.56-28.53-6.24-42.82-9.27a130,130,0,0,1-33.37-12c-14.92-7.75-31.15-13-46.32-20.27-8.71-4.2-16.55-10.28-24.56-15.83-2.54-1.76-4.37-4.54-6.53-6.85ZM710.76,414c-3.93.45-4,3.26-3.82,6.24s.17,5.85.34,8.77a30.32,30.32,0,0,0,.56,3.39c2.54-6.13,6.68-11.87,2.81-18.53,2.31.71,4.18.58,3.57-2.56-.75-3.79.1-8.33-3.46-10.9ZM761.64,455l-9.32-13.75c3.94-1.14,7.81-2.59,11.8-3.35,7.18-1.35,9.34-2.16,10.52-4.93-19.11.88-31.93-1.83-36-7.56l17.9-1.68,0-1.26c-13.06-1.37-25-5.43-35.14-15.25-1.49,7.34-4,13.49-.07,20.31,3.2,5.48,3.73,12.67,10.79,14.79l-11.87,5.76c4.89-7.91,4.89-7.91-3.91-16.11-.59,2.87-1.17,5.11-1.5,7.4-1,6.82-.54,14.26-3.22,20.33-3.26,7.4-2.5,14.26-1.68,21.54.17,1.46-.33,3-.31,4.46a39,39,0,0,0,.89,5c9.07-16.68,20.33-28.93,38.09-36.06l-17.45-20.26-3.44,1c5.72-5.2-4.75-5.8-2.9-9.41,4.92,2.95,10,5.29,14.2,8.78,2.45,2.06,5.93,3.64,6.31,8.26.26,3.26,1.47,8.44,7.44,5.92C753.63,456.63,753.63,456.63,761.64,455ZM803,531.81c5.53-1.47,11.9.74,15.86-5.94a10.86,10.86,0,0,1,6.57-4.61c5-.91,6.52-2.57,5.18-9.71l-4,6.69c-9.05-1.28-10.07-.86-11.87,4.54-2.57.48-5.5.21-7.13,1.54C805.62,525.93,804.73,528.88,803,531.81ZM767,543.15c6.27,1.13,8.3-.57,7.86-6.75Zm-4.85-27.82c-1.37-1.89-2.43-3.33-4-5.42l-3.72,5.42Zm13.73-58.1-8.9.53C770.17,461.61,772.48,461.22,775.86,457.23Z"/><path class="cls-1" d="M185.4,130.39c-2.15-.87-3.67-1.14-5.32,1.49-3.85,6.15-8.28,11.93-12.47,17.87-4,5.66-8,11.33-12.15,17.25l3.73.59c-2.66,6.21-5,12.36-7.87,18.25-3.72,7.56-8.21,14.75-11.75,22.39-4.45,9.61-8.7,19.36-12.23,29.33-2.47,7-4.34,13.86-11.37,17.88-1.34.77-2.27,2.9-2.65,4.57-1.82,7.94-3.44,15.92-5,23.92a3.41,3.41,0,0,0,1.07,2.88c4,2.63,1.35,4.09-.92,5.62.51,1.34,1,2.58,1.45,3.81,1.62,4.14.94,7.27-1,10.9-1.4,2.61-1.74,5.78-2.35,8l5.51,2.44-5,3a11,11,0,0,1,2.29.57c.94.44,2.58,1.15,2.54,1.63-.47,5.76-1.2,11.5-1.91,17.24,0,.16-.53.26-1.59.74V327.31c-6.39,3.41-6,25-.09,36.07.82-4.44,1.61-8.74,2.56-13.87,2.23,2.92,4.19,4.57,4.91,6.65,1.17,3.35,2.34,7.08-2.14,9.48-2.79,1.5-3,3.79-.91,6.17,1.83,2,5.37,2.86,3.67,7.12-.75,1.88.29,4.48.64,7.89l8.61-7.93-.91-1.32-4.54.75L129.78,365l3.72-.17c-.07-1.32-.13-2.57-.22-4.23l8.66,1.8.35-1.1-8.63-6.83-3,2.51-1.27-.9c1.37-2.1,3.2-4.05,4-6.35.66-2,.13-4.42.13-6.54,4.71,1.22,5.9,3.25,6,11l1.35,1.37c.64-1.29,1-3.1,2-3.73a4.73,4.73,0,0,1,4.24-.05c.71.49.38,2.65.32,4.06,0,1.11-.9,2.47-.5,3.26,1.67,3.29,1.79,5.72-2.71,6.21l3.57,7.75-.86.53-7.94-8.1c-.21,3.63-.33,5.76-.48,8.48l-6.23-5.65c-2.69,2.91-5.75,4.5-4.68,9.58.66,3.16-2.18,7-3.22,10.6a43.3,43.3,0,0,0-1,6.35c-.08.64.29,1.34.18,2-1,5.82,0,10.95,6.9,15.14l-6.15,3.12c6.64-.4,10.87-7.09,9-9.56,2.74-1.77,5.48-3.68,8.36-5.33a22.63,22.63,0,0,1,4.37-1.45,20.15,20.15,0,0,1,.18,4.37c-.6,3.35-1.4,6.66-2.26,9.95-.73,2.84-1.07,6-2.61,8.36-3,4.62-5.56,9.09-5.08,14.93.12,1.49-1.51,3.15-2.38,4.71-.7,1.26-1.45,2.49-2.19,3.74l1.39.93,9.76-12.41c-.48,10.48-11.16,21.84-22.77,24.44l9.35-10L129,447c-4.46,3-8.77,6.22-13.43,8.83-2,1.12-4.73.91-7.13,1.33a7.24,7.24,0,0,0-2.8.6c-12,8.31-24.35,5.47-36.78,1.45-1.43-.46-2.83-1-4.26-1.42a13.83,13.83,0,0,0-2.2,0c1.32,1.56,2,2.86,3.08,3.57,7.79,5.12,16.85,6.38,25.7,6.55,12.13.24,24.24-1.48,35.14-7.47,4.53-2.5,8.59-5.85,13-8.9.64,2.43.64,2.43-7.89,13.9l8.47-4.22,5.31,3.21c-1.21,4-2.44,8.09-3.89,12.88l6.36.37c-.35,3-.71,5.93-1.09,9.13l4,2.82-7.69,4.08C140,490,137,486,133.94,482c-2.48-3.18-5-6.24-9.71-6.05a5.59,5.59,0,0,1-3.86-2.05c-4.88-6.13-10.51-4.94-17.14-1.86,4,2.28,6,4.91,2.49,8.84-.4.44.58,2.22,1,3.32s1.17,2.32,1.62,3.19c-2.67,2.82-5.35-3.53-7.13,1-.72,1.86,4.34,8.74,6.5,10.37,6.28,4.73,13.31,9,18.19,14.91,3.65,4.46,6.48,9.61,11,13.53.74.64.57,3.6-.26,4.53-3.28,3.71-9.07,4.12-13.57,1.55a9.2,9.2,0,0,0-3.62-1.39c-3.43-.26-6.72-.1-5.19,5,.14.48-.34,1.14-1.15,2-3.94-9.66-6.69-20-17-25.86l3.81-2.22-6.75-9.18,5.4.48.63-1.41-7.11-3.8c-.93,4.06-1.64,6.94-2.24,9.84A4.13,4.13,0,0,0,90,509.2c4.09,8.53,7.66,17.4,12.58,25.44,5.06,8.25,11.44,15.72,17.32,23.47,4.08,5.38,9.56,10.14,12.07,16.15,2,4.78,4.66,10.72,1.94,17.75l-3.27-4.16c-.32,0-.93,0-1.22.23-2.69,2.52-4.76,2-7.08-.77-1.26-1.54-4.8-2.11-5-3.46-.87-5.81-6.69-6.48-9.52-10.16-3.7-4.81-3.4-6.75.81-11.07,2.22-2.26,3.06-5.87,4.58-9-6.29-1.64-11.08-1.68-15.43,3.14-1.27,1.41-5.43.22-8.48.22-.18-.94-.38-2-.63-3.25-.71.42-1.25.56-1.49.91-2.08,3.11-5.6,5.64-4.22,10.26,0,.12-2.43,1.6-3.12,1.25-5-2.55-5.68-1.76-9.38,2.65-2.51,3-3.58,5.45-3.07,9.12.11.77-1.43,1.82-2.29,2.66-1.55,1.54-3.16,3-4.75,4.52L65,587.94c-2,5.73-11.37,10.62-16.81,8,1.78-1.35,3.23-2.63,4.86-3.62s3.41-1.7,5.18-2.56c-4-6.37-5-6.48-9.68-2.16C47,589,44.86,589.79,43.09,591s-3.52,2.83-5.41,4a66.22,66.22,0,0,1-7.18,4,66.86,66.86,0,0,1-10.07,4.1c-1.57.45-3.55-.53-5.34-.87a46.93,46.93,0,0,1,2.77-4.38c.46-.58,1.67-.55,2.18-1.12,1.29-1.42,2.37-3,3.54-4.55-2-.28-4.22-1.22-6-.72-5.79,1.61-7.32.82-8.21-5.37a17,17,0,0,1,.16-3.48c.34-6.34.76-12.65-5.43-17C1,563.52,1.14,561,3.26,558c1-1.44.8-3.7,1.14-5.59L2.92,552c-.4,1-.79,1.94-1.61,4L0,549.15l4.2-2.43a29.23,29.23,0,0,1-2.89-3,5.68,5.68,0,0,1-1.34-3c.36-16,.83-31.91,1.32-47.87a7.06,7.06,0,0,1,.86-2l4.12,1.38c-7.36-6.69-3.71-14.48-2.54-21.86,2.35-14.69,4.13-29.52,7.6-43.95a350.37,350.37,0,0,1,14.18-46.5c8-20.14,16.88-40,26.69-59.26,12-23.59,27-45.38,43.93-65.76,1.66-2,3.27-4,5.77-7.11.89,4.8,1.54,8.33,2.19,11.86h1.5c.45-2.48.91-4.95,1.57-8.51l3,4.12c2.12-6.72,4-13.53,6.47-20.13.88-2.34,3.25-4.09,4.78-6.23a21.83,21.83,0,0,0,1.71-3.58c1.32-2.79,2.63-5.58,3.52-7.44-2.53-.78-5.82-.88-6.36-2.16a10.55,10.55,0,0,1,0-7.7c2.84-6.31,6.34-12.32,9.7-18.39a71.7,71.7,0,0,1,5-7.9,56.84,56.84,0,0,0,9.07-17.06c1.31-4.23,5.55-7.55,9.52-10.68-.2,1.33-.41,2.66-.61,4l1.07.61c2.26-5.79,3.21-11.69,8.39-16.55,4.71-4.41,9-13.87,13.1-14.42l-.71-4c.52-.27.88-.61,1.09-.54,3.51,1.27,5.9,1.8,4.54-3.65-.43-1.71,1.75-4.07,2.74-6.13l1.54.68-1.77,5,.66.86a18.54,18.54,0,0,0,3.27-2.41c6.26-7.16,12.36-14.46,18.71-21.54,1-1.1,3-1.31,4.51-1.94-.39,1.79-.7,3.6-1.2,5.36-.21.73-1.32,1.44-1.2,2,1.42,6.5-4.14,6.58-7.69,8.18-2.82,1.27-5.68,1.37-5.29,6.08.17,2-3.24,4.63-5.42,6.5-2.72,2.34-5.58,4.32-4,8.55ZM18.79,507.19H29.87c.44-.91,1.73-2.48,1.81-4.11.07-1.43-1.45-4.25-1.89-4.17-3,.5-6.21,1.12-8.71,2.71-1.37.89-1.49,3.74-2.19,5.69l-5.14-2.1-1.1,1.23,3.78,6.21,1.4-.45Zm4.88,22.9-6.14-5.16c-.72,2.72-1,5.46-2.18,7.75-1.34,2.64-3.92,4.67-5.13,7.34-2,4.35,1.88,5.54,4.68,7.17a3,3,0,0,1,1.18,1.55c.79,2.33,1.65,4.77,4.76,3.61,3.43-1.27,8.26.3,9.84-5.12.52-1.77,2.7-3.11,4.25-4.49a17.89,17.89,0,0,1,3-1.79l.21-1.35c-7.34.13-12-3.32-14.61-9.65,3.39.87,6.79,1.69,10.15,2.66a4.9,4.9,0,0,1,2,1.47c2.35,2.47,3.51,1.78,5.1-1.08,1.34-2.4,3.91-4.11,6.26-6.45l3.21,6.83c1.4-3.38,2.78-5.69,3.22-8.16.28-1.6-.83-3.44-1.31-5.17A43,43,0,0,0,47,522c-.73.38-1.08,1.48-1.5,2.11L39.79,521c-.19,1.91-.39,3.82-.63,6.23L20.74,520.9C22,524.81,22.83,527.45,23.67,530.09Zm35.77,41.82,1.32,1c2.21-3.46,5.4-6.67,6.4-10.46,1.56-5.91,3.6-8.67,10.08-10.3l-7.31-2.21-.19-1.39c4.62-1.16,11.1,3,14.4-4.39H71.92l5.79-5.85c-7.09,2.93-13.37,5.52-19.63,8.13-.43.18-.75.63-1.15.91-2.88,2-5.68,4.2-8.68,6-2.25,1.4-4.22,2.36-2.71,5.75.7,1.58-.1,3.82-.29,6.89L41,562.35c-.7,1.33-1.26,2.37-1.81,3.41l.38,1.41c7.12-3.13,14.16,4.62,22-.81Zm-30.28,4.48,3.46-7.34-5.18-1.6c2.55-1.5,4.12-2.51,5.77-3.36,1.46-.76,3.38-1,4.42-2.11s1.25-2.86,1.34-4.37c0-.59-1.75-1.89-1.91-1.78-1,.72-1.64,1.88-2.6,2.65-2,1.58-4.06,3-6.51,4.77-.74-1.91-1-2.49-1.21-3.11-1.54-5.76-4.78-6.69-9-2.54-1.87,1.81-3.68,3.69-5.51,5.53a12.06,12.06,0,0,1,1.09,6.48c-.13,1.81-.55,3.6-.83,5.4l5.46-2,1.88-.63,1.69,3.3C26.74,570.69,27,570.69,29.16,576.39Zm109-160.5c-5.68,7.9-10.47,17.54-22,16.91-10.06-.56-20.07-2.84-25.14-14,.76,4.42,1.87,8.56,4.24,11.75,3.93,5.3,8.67,10,13,14.84-.16.23.1,0,.17-.31a4.83,4.83,0,0,0,.13-1.47c-.31-5.45.85-5.84,6.11-5.62,3.26.14,6.72-1.9,9.9-3.38,1.39-.65,2.1-2.62,3.44-3.5C133.51,427.47,136.11,421.93,138.17,415.89Zm-24.57,159,.16,1c3.76-.22,7.52-.37,11.25-.78.39,0,1.14-1.92.84-2.46-3.16-5.74-5.58-12.08-11.41-15.83l-1.64.56c1.32,5.16,2.63,10.32,4.06,15.94ZM75.33,521.71c-.25.41.2-.09.37-.67.46-1.51.79-3,1.18-4.58a23.1,23.1,0,0,1-4.38.17c-2.43-.35-4.79-1.29-7.21-1.47a11.82,11.82,0,0,0-5.13,1.07c-.59.24-1.19,2.14-.88,2.5a6.11,6.11,0,0,0,3.35,2.21c2.26.25,4.6-.3,6.89-.23A46.42,46.42,0,0,1,75.33,521.71Zm-38.85,46.6c-2.09,4.58-3.65,7.87-5,11.24a9.42,9.42,0,0,0,2.54,1.7c1.89-2.39,3.95-4.75,5.18-7.49C39.66,572.86,37.9,571,36.48,568.31Zm21.77-39.49,2.67,8.8c4.63-2.79,3.27-7.24,3-11.06Zm37.29,20.76c-3.76-4-10.1-2.56-12.79,2.64Zm-61.77-41.1c3.37-.53,4.81-2.35,4.22-5.44-.42-2.17,0-5.23-3.23-5.67Zm78-57.66,1.55,2.32,12.06-8.92-1-1.53Zm-97.29,66c1.33.8,2.55,2.14,3.4,1.93,3.26-.77,6.43-2,8.36-7.15Zm30.27-4.51c3.34-1.39,5.36-2.12,7.27-3.07a2.89,2.89,0,0,0,1.29-1.8,2.74,2.74,0,0,0-.75-1.6,27.93,27.93,0,0,0-6.21,2.5C45.44,508.89,45.33,510.66,44.72,512.3Zm-3.29,63.25c-1.35,3.21-1,5.58,2,6.9.55.23,2.22-.56,2.3-1.06C46.21,578.44,45.18,576.29,41.43,575.55Zm105.74-397-1.47-.78-6.28,11.1,2.07,1.09Q144.32,184.29,147.17,178.58Zm-57,339.26-5.07,7.21C91.24,525,91.88,524.12,90.12,517.84Zm39.24,7.62c-.17,6.15-3.45,2.59-5.61,3.65a10.74,10.74,0,0,0,5.42,2.43c1.19.11,2.5-.93,4.28-1.67Zm-114.86,53c-.87,1.67-1.82,2.65-1.66,3.38.24,1,1.31,1.84,2,2.74.75-.85,2.1-1.71,2.08-2.54S15.72,580.11,14.5,578.45Z"/><path class="cls-1" d="M356.71,78.64,332.63,88l-10.45-2.14c2.95,3.81,5.07,6.33,6.89,9,.5.75.59,2.66.1,3-3,2.3-4.82,5.84-9.65,6.07-3.45.16-6.77,3-10.15,4.66.23.56.45,1.13.68,1.69l3.5-.33c-1.25,4.85-2.35,5.13-7.18,1.29L295.3,120c-.1-1.16-.26-2.92-.47-5.28-2.7,1.64-5.28,3.63-8.18,4.83-2.43,1-5.25,1.11-8.3,1.69l1,2.5c-.28.12-.57.38-.85.35-3.26-.27-6.5-1-7.72,3.66-.25.94-3,1.23-4.85,1.93.59,1.12,1.23,2.34,2.37,4.53-5.61-2.29-8.45-.56-9.65,4.31-.16.64-1.44,1.16-2.3,1.46-2.85,1-5.75,1.88-8.62,2.81l.17,1.48-3.74-2.53-8.72,11.74c1.57,1.12,3.53,2.15,4.89,3.71.46.53-.73,3.51-1,3.49-4.85-.47-9.67-1.22-15.09-2-2.35,1.73-5.48,4.55-9.1,6.44-1.38.72-3.88-.72-5.86-1.17l-.39-1.44,14.78-10.95-2.27-4.53a12.42,12.42,0,0,1,2.93-.22c3,.59,4-.62,3.67-3.52-.55-5.29,2.08-8.57,7.68-11.15l-4.73,12,1.65,1,9-11.15c.91,1.76,1.63,3.14,2.52,4.87.66-1.14,1.73-2.11,1.68-3-.22-3.89.65-6.11,5.26-5.07.41.09,1.47-2.71,2.48-4.63l8.94-9.31c5.95-.19,9.06-2.28,10.33-7.75,5.49.63,7.36-1.26,8.52-6.75a10.72,10.72,0,0,1,4.44-6.2c3.56-2.22,7.77-3.39,11.59-5.24,1.52-.73,2.73-2.12,4.08-3.21l-.71-1.19c-5.32,2.43-10.64,4.87-16,7.28-1,.47-2.23,1.33-3.19,1.15-4.42-.82-6.77,2.08-9.91,4.32-3.72,2.64-8.8,3.32-12.66,5.82-7.45,4.83-15.25,9.56-21.37,15.84-3.79,3.89-7.76,5.77-12.29,8s-7.61,6.75-11.81,9.54c-4.51,3-4.72,7.28-4.48,11.94-4.58-1.33-4.58-1.33-2.63-6.12-3.79-1.62-5.83,7.82-10.21.7l-.69,1.4,1.39,3.19c-2.66,3.32-5.15,6-7.13,9-3.38,5.1-3.24,5.19-11,9.67l-6.66-9.75,5.42-.35c2.69-4.72,5.22-10.42,8.89-15.25,3.07-4,7.36-7.19,11.33-10.47,2.86-2.36,6.16-4.19,9.08-6.5a3.29,3.29,0,0,0,.64-3.06c-1.54-3.38.19-5.36,2.19-7.9,7.12-9,15.9-16.1,25.17-22.73,6.67-4.78,12.91-10.18,19.68-14.81,5.16-3.53,10.84-6.27,16.61-9.55-7.42-2.63-20,3.27-20.49,7.74L232.42,87.34l-1.25-1.6c3.11-3.15,5.8-6.92,9.4-9.33,6.35-4.23,11.88-10.06,19.88-11.49.3,0,.58-.47.86-.46,11.69.57,17.53-9.47,26-14.6,4.54-2.74,8.11-7.06,12.17-10.61.51-.45,1.33-.53,2.57,0L279.66,60.62c5.77,1.1,12.06.09,16.29,6.24,19.22-5.09,34.46-18.78,51.47-29.1.38.57.75,1.14,1.13,1.7-2.39,2-4.68,4.19-7.18,6.08-3.84,2.9-8.53,5-11.58,8.54-5.48,6.35-14.25,7.68-19.58,14-.51.6-1,1.23-2,2.55h7.73l-2.64,6.1C323.48,73.36,332.4,69.77,343,72l-5.25,2.77c6.88-.86,13.86,2.39,20.35-1.56,1.52-.93,4.55.65,7.84,1.25l-9.29,4.22Zm-58.39,28.63c7.25-5.69,14.54-11.35,21.71-17.14.53-.43.24-1.87.41-3.58-8.28,6.48-15.22,12.9-24,16.78l2,4.07a16.65,16.65,0,0,1-2.42-.56c-6.15-2.41-7.82-1.13-7.19,5.67Zm-77.23,8.17.81,1.56a34,34,0,0,0,5.45-2.45c7.76-5.31,15.42-10.76,23.11-16.16,4.88-3.42,9.85-6.73,14.6-10.32a22.94,22.94,0,0,0,5.53-5.68c1.3-2,2.09-3.81,4.88-2.4a2.29,2.29,0,0,0,1.86.16c4.57-2.86,9.14-5.72,13.54-8.81.88-.61,1.05-2.23,1.54-3.38l-4.22-1.64c.49,1.83.72,2.66,1,3.61-7-1-28.32,11.79-34.73,20.75-.37-1-.68-1.79-1.14-3-2.1,1.44-4,2.75-6.39,4.35l4.35,3.45C238.35,99,228.83,106,221.09,115.44Zm89-38.19c-8-.43-11,1.32-11.91,6.55Z"/><path class="cls-1" d="M538.68,483.68l6.47,4.54c-12.52-20.25-9.1-24.81,5.63-38.82-4.77-1.28-7.77,2.18-11.35,3.05-1.06.25-1.89,1.34-2.93,1.77-2.17.9-5.48,1-6.42,2.51a33.06,33.06,0,0,0-3.83,11,26.22,26.22,0,0,0,.2,9.83c.33,1.66,2.26,3.19,3.79,4.35a35,35,0,0,0,5.43,2.85l-.57,1.14-5.87-1.6a82.89,82.89,0,0,1,4.59,8.46c.45,1.08-.37,2.69-.62,4.07-1.17-.37-2.75-.38-3.46-1.16-3.23-3.6-6.22-7.41-9.42-11.3-4.55,2.37-6.41,7-4.06,14.18-3.31-.55-6.91-.11-8.38-1.68s-1.43-5.32-.7-7.7a154.35,154.35,0,0,1,6.52-16.44c6-13.61,13.73-25.84,26.08-34.79,9.83-7.13,22-8.92,32.26-14.94,6.3-3.7,12.93-5.74,20.27-5.18,1.24.1,2.47.24,3.7.36l1.24,1.77-7.19,5.17.71,1.53,14.5-4c-2.25,7-8.79,6.78-11.34,11.43,3.38-1.52,6.71-3.2,10.18-4.49,1.63-.61,3.54-.46,5.32-.65-.78,1.46-1.55,2.93-2.36,4.37-.29.54-.68,1-1.53,2.26l12.41-3.7,1,1.52-9.42,8.15c6.64,1,12.31-3.85,18.37.34-3.62,1.65-7.26,3.26-10.85,5a43.25,43.25,0,0,0-3.86,2.31,19.38,19.38,0,0,0,3.61,3c1.27.62,3,.31,4.28.91,1.11.53,1.89,1.77,2.81,2.7-.89.76-1.75,1.57-2.68,2.29-1.51,1.18-3.9,2-4.35,3.52s.92,3.66,2.15,4.88c.48.47,2.78-.91,3.41-1.14h15.22l.1,1.61-6.38,3.29,9.15,2.22c-1.22,1-1.71,1.81-2.34,1.95-6.08,1.39-12.27,2.41-18.26,4.11-3,.84-3.81-.14-4.66-2.57-6.32-18.2-16.37-27.59-36.54-33,15.37,14.88,15.09,31.67,9.19,49.8l8.83-2.24c-7.39,6.72-41.24,14.37-50.59,8.82C551.5,490.5,539.93,490.47,538.68,483.68Zm44.81,1.23c3.49-5.09,4.51-10.8,4-16.92-.75-9.6-8.6-14.58-13.81-21.26-.36-.46-1.82,0-2.74-.11-1.73-.23-3.45-.59-5.18-.87a5.47,5.47,0,0,0-2.59-.21,2.26,2.26,0,0,0-.56,2.12,15.89,15.89,0,0,0,3.28,3.87c6.81,5.5,12.65,11.68,10.77,21.28C575.52,478.87,576,483.26,583.49,484.91Zm-29.33-22.83-1.22.62c.87.94,1.58,2.34,2.64,2.72,3.68,1.33,7.46,2.36,11.24,3.37a34.38,34.38,0,0,0,4.55.65c0-1.7.39-3.48,0-5.08-1.57-6.48-7-9.88-11.65-13.77a24.08,24.08,0,0,0-4.32-2.31c-.77,1.88-2.07,3.72-2.18,5.64C553.07,456.61,553.8,459.36,554.16,462.08Zm-1.73,28.82c-.41,4.28.69,7.8,6.22,6.82,5.69-1,11.31-2.45,17-3.67,3.36-.73,4.55-3.09,5.06-5.58l-9.24-2c.7,1.9,1.25,3.39,2.29,6.25l-4.61-3.21-3.36,3.16c-2.53-1.41-4.17-3-5.91-3.13C557.51,489.34,555.11,490.34,552.43,490.9Z"/><path class="cls-1" d="M389.29,111.11l4.57,5.34c1-5.3-.48-8.76-4.39-11.56-1.68-1.21-2.78-3.23-4-4.68,5.78-3.68,11.87-4.9,15.64-10.29,1.23-1.75,4.23-2.27,6.51-3.4a1.75,1.75,0,0,0-.09-.71c-.85-1.83-1.73-3.64-2.6-5.46a46,46,0,0,1,5.63-1.23c4.22-.44,8.45-.67,12.68-1,.06-.58.12-1.17.17-1.75l-8.46-1c4.66-4.12,45.61-6.53,52.71-2.86-2.71.45-4.3,1-5.85.93-5.61-.22-9.88,1.87-12.84,6.68-.31.51-1.39,1.08-1.81.9-4.53-1.86-4.91,1-4.77,4l-19.16,6.75c.6,2.2,1.22,4.51,2,7.38h18.29c-1.1,3.48-5.31,6.35-2.69,11.3,1.08-1.14,1.89-1.88,2.57-2.72,1.68-2.09,3-2.62,5.11-.13,2.52,3,5.42,3.71,9.6,1.77,2.46-1.15,6.25.44,9.41,1,2.4.42,4.75,1.13,7.14,1.72-.36.55-1.16,1.82-2.07,3.24.74.34,1.15.68,1.56.67s12.16-1.66,12.55-1.54c2.18.62,3.41,1.8,1.47,3.82-2.77,2.88-5.75,5.56-9.71,9.36l14.45-.67c-5.78,5.61-14.54,5.91-19.71,1-2.38-2.26-4.6-3.12-7.2-.2-3.57,4-8.25,6-13.21,8.09-4.2,1.75-7.53,5.77-11,9-2.88,2.72-5.14,6.13-8.2,8.58-1.35,1.08-4,.54-6.78.28,4.89-5.27,0-6.72-3.47-9.68l6.13-1.48c-1.84-1.6-3.36-2.94-5-4.37l-5.24,7.12c-4.4-2.88-7.75-1.77-9.77,3.05-4.74-.73,1.29-8.48-5.67-7.63v4.44l-1,.71c-1.67-2.34-3.34-4.68-5.44-7.64a17.59,17.59,0,0,1-1.79.19c-3.59.14-5.19-1.86-3.33-5,2.52-4.2,5.83-7.92,8.67-11.94.7-1,.87-2.36,1.45-4-4.79,2.91-8.23,5.35-12,7.13a9.36,9.36,0,0,1-6.08.31c-1.63-.45-2.89-2.2-4.32-3.37,1.38-1.1,2.61-2.69,4.18-3.18,3.76-1.19,5.53-3.43,5.24-7.34Zm47.24,8.36-6.76,7.84v10c12.63.2,21.6-5.88,25.66-19.43l-17.19,10.5C437.71,125.6,437.25,123.23,436.53,119.47Zm-17.87,2.06c-7.8-.14-10,5.73-13.54,10.83C413.89,133,418.41,129.25,418.66,121.53Zm10.91-9.2c-6,2.12-7.78,3.7-8.74,7.58C428.91,119.13,429.28,118.81,429.57,112.33ZM412.66,95l6.88,3.23-.45-7.54-1.72-.34Z"/><path class="cls-1" d="M468.32,730.3c-3.05,5-7,6.84-11.85,7.61-12.29,2-21.54-3.63-29.77-11.76-2.46-2.43-4.24-5.62-6.92-7.73-1.57-1.23-4.28-1.07-6.5-1.4-1.53-.23-3.1-.23-4.65-.32.8-1.43,1.27-3.29,2.46-4.2,11.54-8.82,20.85-19.82,30.29-30.69.88-1,1-2.91,1-4.4,0-1.84-.49-3.69.2-5.87.5.55,1.05,1.07,1.5,1.67,4,5.43,9.94,6.5,16,3.16a15.54,15.54,0,0,1,5.61-1.44c4.2-.49,6.48-2.95,7.69-6.77.72-2.28,2.64-4.84,2.1-6.74-1.18-4.22-5.12-4.39-8.55-3A24.13,24.13,0,0,1,453.53,660a21,21,0,0,0-20.72,8.23c-5.19,6.63-10.54,13.14-15.64,19.85-1.15,1.51-1.35,3.71-2.33,5.41-1.47,2.57-3.27,4.82-5.76,2.27,2.35-5.21,4.05-10.22,6.74-14.61,2.38-3.87,5.8-7.14,8.91-10.53,3.47-3.79,7.44-7.17,10.62-11.19,3.78-4.79,9.65-6.19,13.95-4.7,9.09,3.17,16.18.11,23.38-4.2,3.79-2.27,7.41-2.16,10.65.45,5.4,4.36,10.5,9.11,15.76,13.66,7.23,6.24,14.49,12.46,22.38,19.24-11.06,4.93-18.6,14.22-24.55,25.14l-1.87-1.43c.87-2.53,1.57-5.14,2.66-7.58,1.19-2.66-.53-5.73-4.46-6A44.28,44.28,0,0,0,481,695c-13.45,2.91-25,9.79-35.62,18.27-2.07,1.64-4.47,2.86-6.5,4.52-6.08,5-5,10.05,2,13.56C450.05,736,458.72,733.41,468.32,730.3Z"/><path class="cls-1" d="M279.16,455.62l16.89,9,.92-1.4-3.37-5.12c.15-.42.3-.85.46-1.28,9.37,5.9,19.26,8.63,30.42,6.45.43,5.24,5.06,5.58,9.13,6.28,3.13.53,4.32,1.75,5.69,4.89,2.17,5,6.2,9.1,9.31,13.41l-3.13-1.26c-.4.58-.92,1-.91,1.35.15,3,.4,6,.62,8.95.44,6.1,0,12.13-3.66,17.21-1.46,2-4.2,3.13-6.31,4.62.4-4.23.41-7.4,1.07-10.43.59-2.74,2.09-5.27,2.78-8a14.52,14.52,0,0,0,0-5.22c-.7-5.71-4.12-10-7.51-14.35-.61-.78.22-2.68.38-4.06-11.46-9.54-30-9.77-41.09.1,1.31,1.27,2.58,2.53,3.86,3.78a22,22,0,0,1,2.77-3.64c1.75-1.52,3.76-2.74,5.66-4.09,1,1.74,2.35,3.38,3,5.25a5.83,5.83,0,0,1-.32,4.33c-2.49,4.22-.38,7.26,2.11,10.35,2.37,2.94,4.93,4.37,9.07,3.25,6.49-1.75,8.55.48,7.45,7.21-1.13,6.9-5.47,11.05-12.47,12.22-2.9.49-5.73,1.39-8.59,2.12-2.5.64-4.63,1-6.37-1.93-1-1.64-3.35-2.44-5.09-3.62l-.86,1.08c-.58-2.38-1.17-4.75-1.76-7.13l-.86.83c-1.51-1.26-3.74-2.25-4.33-3.85-.69-1.85.08-4.24.21-6.39l-1.6-.8c-1.63,1.41-3.9,2.51-4.78,4.29-3.07,6.19.52,19.84,6.73,22.53,5.54,2.4,12,2.73,18,3.92a15.38,15.38,0,0,0,2.88,0c.11.5.22,1,.32,1.5-3.33.72-6.78,2.36-10,2-7.53-1-15-2.8-22.4-4.43-6.67-1.45-13.12-2.64-17.72,4.45-.45.69-2.7.48-4,.22a2.5,2.5,0,0,1-1.43-2,4.76,4.76,0,0,1,1.85-2.42,30.77,30.77,0,0,1,21.63-6.41c-9.35-15.37-8.25-29.25,5.19-42.59-12.86,4.83-25.39,19.8-23.68,32.32.25,1.81,1,3.88.45,5.39s-2.7,3.89-3.94,3.77c-4.38-.43-8.67-1.76-12.25-2.57-.68-2.77-1.27-5.11-2-7.85l9.78-2.73-12.9-5.57.29-2h10.79l.22-1.4,3.72,3c.31-.4.63-.79.94-1.18C248,492.74,240.14,494.67,237,488l13.84,2.12c1.79-6.89-6.4-5.51-7.9-11.35l14.47,2.66c.24-.38.49-.75.74-1.13l-9.7-8.14c.25-.56.51-1.12.76-1.69l17.14,6.2-9.4-8.81,1.07-1.68,14.67,4.67.42-1.09-8-11c7.67.17,10.8,9.31,18.32,5.84-1.89-3.15-3.53-5.88-5.16-8.62Z"/><path class="cls-1" d="M816.21,617.16,821,618c3.8-3.94,5.51-10.23,12.74-9.74.79,0,1.61-1.12,2.51-1.42a34.73,34.73,0,0,1,7.14-2c2.88-.32,5.14-3,3.27-5-5-5.21-4.15-9.64,1.52-14.14l-1.16-1.23c-2.27.59-5.56.44-6.6,1.91-3.6,5-9.05,3.47-13.64,4.58-3,.73-6.36.14-9.48.14-.47-.9-1.09-3.5-2.1-3.66a7,7,0,0,0-5.29,1.79c-3.53,3.57-8.62,3.15-12.6,5.5-3.12,1.84-6.71,2.86-9.9,4.6-.67.37-1,2.55-.6,3.47,3.91,8.39-1.08,14.45-6,19.7-3,3.15-8,4.24-12.06,6.46-3.14,1.74-6.07,3.85-9.19,5.65-1.76,1-3.7,1.72-5.56,2.57l-1-1.4c2.92-4.77,5.8-9.56,8.82-14.26.49-.75,1.78-1.68,2.44-1.51,5,1.28,7.81-1,8.69-6.11,1.3.7,1.86,1,2.4,1.29a39.17,39.17,0,0,0,4.27,2.41c.24.11,1.54-1.47,1.49-1.54-1.22-1.44-2.33-3.2-3.92-4-2.09-1.09-4.56-1.41-6.87-2.07l-.42-1.46c2.87-2,5.65-4.09,8.63-5.87,2.79-1.66,5.08-3.25,5.77-6.91.36-1.91,2.65-3.47,4.12-5.15.31-.35,1.16-.52,1.17-.81.59-8.86,7.74-4.77,12.09-6,1.19-.33,2.77.72,4.17,1.14,3.89-4.34,15.68-3.79,19.39,1.33.82-2.92,1.41-5.58,2.33-8.12,1.94-5.37,4.9-1.51,8.14-.25,1.41-5.71,5.4-5.22,10.08-5,2.32.11,5-3,7.11-5,1.28-1.26,1.75-3.34,2.58-5.06l1.53,0c.54,1.66,1.52,3.32,1.55,5,.13,10.55-.44,20.95-5.27,30.76-1,2.09.27,5.33.49,8h-5.37a45,45,0,0,0,1,4.64c.58,1.84,1.4,3.6,2.4,6.11l-4.18-1.4c.63,4.9,1.18,9.22,1.92,15l-3.41-2.29-4.87,6.6-1.42-.68c-1.19-5.67-2.3-11.35-3.63-17-.52-2.2-1.83-3.67-4.36-2-1.82,1.17-3.94,2-5.4,3.55C822.56,622.91,819.27,621.7,816.21,617.16Z"/><path class="cls-1" d="M399,13.47c2.09-.82,4.15-1.72,6.28-2.41a31.72,31.72,0,0,1,4.66-1c2-.32,4-.52,6.86-.88L422.47,13H406.29c.1,4.07,9.56-.7,4.95,6.46l5.15,2.91,4.32-2.8L417,17c.16-.53.24-1.1.33-1.1,8.42,0,13.88-6.12,20.52-9.83,3.88-2.17,7.91-4.06,12-5.89.9-.41,2.15-.06,3.93-.06-5.25,8.49-15,8.77-22.84,14.84,14.47,0,27.72-2.83,40.93.59C496.6,22,506.45,25.79,507.66,31.35c-4-1.52-7.73-2.5-11-4.29-15.07-8.16-31.33-9.25-47.94-8.65-6.62.23-13.28.05-19.86.7-3.07.31-6,2.15-9.3,3.41l1.66,4-5.27,4.68c-4.33-1.74-13,1.81-14.82,6.43-.36.9.14,3,.82,3.28,1.37.65,3.56,1.18,4.65.51,4.78-2.91,9.17-6.44,13.92-9.39,2.86-1.78,6.12-2.89,9.19-4.31l1.44,1.48c-.95,1.23-1.64,3-2.89,3.59-3.48,1.71-7.62,2.26-7.06,7.93.12,1.11-3.26,2.75-5.2,3.84-2.2,1.24-4.73,1.92-6.86,3.24-2.81,1.75-5.19,4.22-8.09,5.72-1.47.75-3.67.06-5.55,0,.58-1.68.65-4,1.82-4.91,3.95-2.92,3-5.73.82-8.85L368.54,57.59c-4.93-3.52-7.89-8.23-13.84-7.52-.78.1-1.83-1.14-2.56-1.94-.18-.2.24-1.34.67-1.64,3.19-2.23,6.26-4.74,9.73-6.42,5.33-2.59,10.94-4.58,16.43-6.81,5.79-2.35,11.49-5,17.41-6.91,3.11-1,6.62-.8,10.14-1.16-.52-2.29-.87-3.83-1.34-5.92l-25.82,4c4.56-4.9,6.3-5.52,14.17-6.5,2-.25,3.74-2.26,5.6-3.46Z"/><path class="cls-1" d="M181.83,681.7c-8.87,7.07-17.49,16.59-29.13,21.7L151.56,702c4.71-4.23,9.47-8.42,14.14-12.7,4.51-4.14,9-8.33,13.31-12.66a3.68,3.68,0,0,0,.46-3.16c-3.59-10.15-7.32-20.25-11.37-31.33l-13.58,8.1-.74-.79,6.46-7.46c-4.07-2.4-8.07-4.34-11.6-6.93-5.41-4-8.22-9.78-10.1-16.09-.74-2.47-1.88-4.87-2.28-7.4s-.09-5.08-.09-7.69l-5.46,2.54-.78-1.44,2.82-3.27c-.52-1.27-1.85-3-1.43-3.78,1-1.79,2.93-4.41,4.4-4.36,3.12.1,1.31,3.11,1.76,4.95,1.72,7,4.1,13.83,6.26,20.71.2.61.91,1.12,1,1.72,1,10.57,9.21,13.89,17.39,17.22.61.25,1.19.56,3.5,1.65-1-5.11-1.29-9.24-2.58-13-3.93-11.58-9.64-22.67-8.72-35.46.1-1.4-1-2.85-1-4.29,0-1.81.45-3.63.89-6.63l-2.86-9.2,1.28-.52c2.4,5.15,5.76,9.6,6.35,15.89.62,6.64,4,13.12,4.05,19.68,0,6.73,3.53,11.75,5.54,17.45,5.51,15.65,13.1,30.73,17.08,46.73,4.31,17.29,14.65,30.72,23.45,45.25,2.8,4.62,6.48,8.7,9.21,13.52-5.95-4-11.37-8.35-15.08-14.65-4-6.72-8.16-13.29-12.38-19.85C188.18,690.69,185.33,686.78,181.83,681.7Z"/><path class="cls-1" d="M355.33,169.12c-4.62-.63-9.23-1.62-13.85-1.71-1.8,0-3.64,2-5.08,2.84-.93-2.69-1.93-5.61-2.95-8.55-7.07,2.18-7.18,2.16-11.38-3.65l6.37,1.74.87-1.12c-1.46-1-3-1.88-4.36-2.92a19,19,0,0,1-2.05-2.06,15.53,15.53,0,0,1,2.54-.65c1.1-.1,2.69.49,3.26,0,7-6.79,17.72-5.62,25.14-11.67,1.08-.88,3.88.35,5.88.6-.53,1.87-.51,4.81-1.69,5.42-6.81,3.5-7.85,9.84-9.33,16.63l14.46-6.77,1,1.6-9,10.45Z"/><path class="cls-1" d="M663.55,142.3c3.54,5.48,7.32,10.82,10.57,16.47,5.44,9.48,10,19.52,16,28.65a100.44,100.44,0,0,1,13,27.74c2.62,9.35,4.09,19,6.05,28.57a48.21,48.21,0,0,1,1.08,6.28c.18,2.9,0,5.83,0,8.74l-2.11.14c-.74-5-1.3-10-2.26-14.9-2.27-11.66-4.2-23.32-9.87-34.12-8.62-16.43-16.41-33.29-24.67-49.9-2.27-4.55-5-8.88-7.47-13.33-.62-1.1-1.12-2.27-1.68-3.41Z"/><path class="cls-1" d="M408.59,595c-1.38-5.45,1.82-7.14,6.2-8.16,7.32-1.71,19.94,4.81,21.85,12,.59,2.22,0,6.26-1.45,7.18-2.65,1.66-6.67,2.75-9.59,2-5-1.29-9.86-3.86-14.39-6.54-1.81-1.07-2.6-3.87-3.85-5.89Z"/><path class="cls-1" d="M700.29,312.13c.69,5.84,1.22,10.65,1.83,15.46,1,8,2.13,16,3.11,24a31.65,31.65,0,0,1,.35,7.13c-.68,6.24-1.57,12.46-2.6,18.65-.19,1.13-1.49,2.08-2.23,3.05-6.23-2.71-6.29-3.15-2.67-8.47a9.08,9.08,0,0,0,1.78-5c-.35-7.33-1.07-14.63-1.66-21.94l-2.2-.08c-.58,2.61-1.17,5.23-1.82,8.14C690.48,348.26,694.54,319.25,700.29,312.13Z"/><path class="cls-1" d="M435.84,787.76l1.08-3.62h-5.24l6.72-4.87a61.33,61.33,0,0,0,30.4-6.89l-8.15.7-.15-1.68,16.83-1.72c-.16,1.13-.31,2.18-.7,5,4.54-1.92,8.34-3.13,11.72-5.06s6.59-4.69,9.86-7.08l1.41,1.17c-1.68,2.38-3.21,4.87-5.07,7.1-4.41,5.25-9.83,8.46-16.95,9a188,188,0,0,0-21.67,2.79C449.2,783.84,442.63,786,435.84,787.76Z"/><path class="cls-1" d="M356.61,78.67c6.51,2.42,16.16-3.64,20.08-7.75,2.07,3.76,4.88,3.74,8.44,2,1-.48,2.94,1.11,4.45,1.76-1,.81-1.94,2.2-3.05,2.35-12,1.67-20.06,9.23-28.25,17.26-4.73,4.64-11,7.72-16.55,11.5l-1.31-1.32a18.47,18.47,0,0,1,2.24-3.79c5.17-5.25,10.46-10.39,15.72-15.55,3.16-3.11,1.11-4.88-1.64-6.49Z"/><path class="cls-1" d="M474.84,577.6c3.88-.09,7.29.8,9.1,4.68s-.28,6.58-2.36,9.52c-3.88,5.53-9.2,6.81-15.29,5.27a6.23,6.23,0,0,1-3.93-3.66C460.6,586.47,467.72,577.71,474.84,577.6Z"/><path class="cls-1" d="M412,729.91c2.63,2.37,5.16,4.85,7.9,7.08,8.66,7,18.38,11.72,29.62,12.73a16.72,16.72,0,0,0,4.86-.71c5.15-1.12,10.43-1.87,15.37-3.6,5.49-1.93,10.66-4.77,15.95-7.25a11.63,11.63,0,0,1,4.38-1.57c-2.84,3.95-5.24,7.7-10.72,8.95-7.67,1.74-15.08,4.72-22.52,7.4-7.7,2.77-14.62,2.35-22.24-1.53-9.76-5-17.19-11.9-23.6-20.32Z"/><path class="cls-1" d="M587.21,64.82l10.11-.92c1.06,2.94,1.21,5,2.3,6.15a52.44,52.44,0,0,0,23.94,15.11c3.91,1.16,7.17,6.08,9.59,10,1.2,1.93-.17,5.46-.42,8.81l-3.9-1.42c3.2-7.85,2.78-8.42-6.57-12.8-7.75-3.62-15.34-7.55-23-11.38-.73-.36-1.72-.81-2-1.46-2.45-6.51-9.63-7.16-13.88-11.38a21.45,21.45,0,0,1-2.26-3.36c1.24-.65,2.64-2,3.67-1.74s1.39,2.19,2,3.4A6.16,6.16,0,0,1,587.21,64.82Z"/><path class="cls-1" d="M552.56,70.44c1.6,4.86-1.52,7-5.23,9.13a32.83,32.83,0,0,1-12.07,4.08c-6.44,1-12.54,4-18.87,5.93-1.82.54-3.93.09-5.91.09,0-.57-.05-1.13-.08-1.69l7.78-2.2-2.57-4.36.82-1,5.14,3.09c0-2.72.3-5,4.06-2.55,1.39.91,3.83.86,5.59.42,2.62-.66,5-2,7.75-3.21.12-.56-.07-2.6.72-3.09q12.36-7.83,25-15.15c.91-.53,2.55.19,3.85.33-.34,1.17-.34,3-1.08,3.42C562.84,66,558,68,552.56,70.44Z"/><path class="cls-1" d="M359.74,494c1.33-7.46-5-10.63-6.49-16.56,2,1.44,4.36,2.57,6,4.35,7.09,7.65,9.91,16.73,8,27.05-.94,5-3.3,5.79-10.35,4.57-1.28-7.53-2.49-14.65-3.67-21.63Z"/><path class="cls-1" d="M170.36,237.13l-20.07,32-.49-.57q-2.07,6.77-4.15,13.52l-2-.1c-.06-2.48-.82-5.2,0-7.39,2.48-7.09,5-14.24,8.57-20.84,1.89-3.56,3.1-8.65,8.75-9.2.76-.07,1.71-1.9,2-3.06C164.13,235.76,164.05,235.75,170.36,237.13Z"/><path class="cls-1" d="M199.55,437.79l4.58-2.21c.25-3.42.48-6.74.78-10.83l4.12-2.06-.78,3.46,1,.89,12.35-14c1.57,2.93,3.66,6.3,5.17,9.92.51,1.22-.28,3.14-.88,4.57-.16.4-1.74.22-2.67.3a38.23,38.23,0,0,0-.31-4,23.39,23.39,0,0,0-1.34-3.46c-.41,1.86-.5,3.45-.81,3.49-7.53,1.06-6.46,10-11.77,12.81-2.7,1.44-5.88,2-8.84,2.91Z"/><path class="cls-1" d="M142.3,551.25l3.23,2.34c-.54,3.15-1,5.85-1.58,9.16-7.62-6.85-3.84-19-13.06-25.12,7.49.73,8.11,1.54,9.25,11.74l3.93-7.94-6-3.14c5.07-1.8,8.74-3.63,11.21.55C153.33,545.7,147.69,548.42,142.3,551.25Z"/><path class="cls-1" d="M492,112.1c7-3.63,13.48-6.79,19.77-10.38s6.11-3.74,9.07-10.5l4.78,3.69c-1.17,1.48-2.09,3.3-3.55,4.36-6.18,4.5-12.55,8.72-18.78,13.15-1.11.79-1.8,2.15-2.79,3.16C498.61,117.53,495.4,116.52,492,112.1Z"/><path class="cls-1" d="M322.71,147.86a22.26,22.26,0,0,1-2.83,3.77c-.21.19-2.48-1.07-2.46-1.62.05-1.65.29-3.72,1.31-4.81,2.26-2.38,5-4.26,8.16-6.8,1.14.33,3.56,3.35,3.44-2.82-.1-4.86,5.36-7.59,9.73-9.72l1.52,1.2c-1.57,2.06-3.12,4.13-4.69,6.19-1.19,1.57-3.15,1.95-2.58,5.32C335.42,145.07,329.39,149.37,322.71,147.86Z"/><path class="cls-1" d="M375,846.89,333.1,822l1-1.67c15.46,5.83,30.11,13,42.06,24.82C375.76,845.76,375.36,846.33,375,846.89Z"/><path class="cls-1" d="M429.08,40.7c5.56-6.71,11.47-13.08,22.65-7.86-4.11,2.65-7.66,6.84-11.21,6.84-6.92,0-9.34,5.25-13.55,8.43a36.11,36.11,0,0,0-3.32,3.58c.25-3.52.31-5.55.56-7.55.14-1.13.61-2.22.85-3.34.32-1.46.55-2.93.82-4.4Z"/><path class="cls-1" d="M196.27,718.75l38.48,43.77C228.29,761.76,204.57,735.76,196.27,718.75Z"/><path class="cls-1" d="M392.73,605.42c-4.53-3.19-7.4-15-5.22-20.94,1.23-3.38,2.71-7,2.65-10.48-.13-7.08,2.26-12.9,7.56-19.13.33,1.87,1.09,3.34.65,4.21-5.23,10.34-7.53,21.53-8.63,32.85C389.32,596.27,391.64,600.87,392.73,605.42Z"/><path class="cls-1" d="M523.38,56.24l35.19-17C556.28,48.13,531.87,58.65,523.38,56.24Z"/><path class="cls-1" d="M697.43,310.47c-2.22-12.14-.56-23.22-.58-34.59C702.49,278.09,703.08,303.61,697.43,310.47Z"/><path class="cls-1" d="M765.64,606.23c-2.55,5.63-8,6.47-12.37,8.37-2.94,1.26-4.2-1.27-4.59-4.17-.34-2.56-.3-4.25,3-4.17.86,0,2-1,2.58-1.77,3.86-4.85,4.06-4.87,8.17-.57A22.78,22.78,0,0,0,765.64,606.23Z"/><path class="cls-1" d="M141.89,372.2c3.42,4.24,6.1,5.74,9.59,2.46.77-.73,2.59-.34,4,.15-5.34,5-10.3,10.68-18.89,6.95L139,385c-3.42,1.18-5.9,1.76-6.21-2.77-.1-1.44-1-2.81-1.17-4.26a21,21,0,0,1,.22-4,35.79,35.79,0,0,1,3.3,2.21c.43.37.52,1.15.75,1.7l6-.68Z"/><path class="cls-1" d="M820.7,556.65l2.59,4.3-5.83,1c-.92-3.5-1.74-6.6-2.92-11.07,3.48.67,6.34,1.26,9.22,1.76s5.73,1.46,8.51,1.22c4.54-.39,6.55,2,8.89,7l-19.84-5.32Z"/><path class="cls-1" d="M778.5,579c3.49,1.58,4.18,3.16,1.47,5.35l-.77.63c-6.43,5.41-6.43,5.41-2.06,13.25l-12.27-1.89-.12-1.16,2.43-1.28-2.42-3.16,5.33-.7.15-.9c-1.61-.73-3.23-1.45-6-2.69C769.61,583.77,777.5,587.79,778.5,579Z"/><path class="cls-1" d="M36,607.44c-1.83,3.91-4,7.88,1.92,10.15.38.14.91,1,.82,1.09-.75,1.14-1.43,2.79-2.51,3.15a70.53,70.53,0,0,1-8.64,1.86c0-1.68-.63-3.63,0-5,2-4.12,4.47-8,6.75-12Z"/><path class="cls-1" d="M485.54,601.51c18-8.42,12-21.2,6.5-34.26,5.09,3.38,10.11,17.62,7.65,23.47C497,597.07,491.31,602.43,485.54,601.51Z"/><path class="cls-1" d="M748.94,584.88l6.12-1.4c-1.28,3.76-3.18,5.51-6.66,5.13q-5.7-.61-11.4-1.31a5.34,5.34,0,0,1-2.64-1c6.4-.82,10.41-7.78,18.36-6.89C751.33,581.38,750.46,582.65,748.94,584.88Z"/><path class="cls-1" d="M443.49,775.54l-18.65-11.45c.18-.56.37-1.12.55-1.68a13.21,13.21,0,0,1,3.66.46,110.44,110.44,0,0,1,13.05,6c1.58.93,2.2,3.49,3.26,5.31Z"/><path class="cls-1" d="M623.22,106.05,635,108.72l-4.41,2.42,8,4.76c-1,.66-1.81,1.64-2.41,1.52a93.76,93.76,0,0,1-10.31-2.62c-.77-.25-1.4-1.65-1.64-2.63C623.71,110.17,623.53,108.1,623.22,106.05Z"/><path class="cls-1" d="M494.34,56.53c-3.21,9.63-11.92,15.74-17.07,12.62Z"/><path class="cls-1" d="M527.29,141.43l-21.82-12.5C510.93,126.32,523.67,133.2,527.29,141.43Z"/><path class="cls-1" d="M740.48,615.15a5.87,5.87,0,0,1-2.51-1,4.82,4.82,0,0,1-1.53-3.31c0-.59,1.57-1.38,2.55-1.71a22.12,22.12,0,0,1,3.92-.65c.49-.07,1.24-.3,1.43-.08.76.88,2,2,1.88,2.85-.63,3.17-1.72,6.25-2.64,9.36Z"/><path class="cls-1" d="M149.44,334.52q-1.38,5.44-2.77,10.92h2.43a6.63,6.63,0,0,1,.15,1.13c-2.16.71-4.33,1.36-6.5,2-.43-2-1.75-4.33-1.1-5.84,1.46-3.39,3.9-6.36,5.93-9.51Z"/><path class="cls-1" d="M315.22,40.1l3.4,4.8c-5.26,2.83-10.11,5.63-15.17,8-.81.38-2.54-1.22-3.84-1.9,1.08-.67,2.11-1.42,3.24-2C307.28,46.8,312.46,45.68,315.22,40.1Z"/><path class="cls-1" d="M263.65,52.82l24.55-9.35.49,1.19a48.43,48.43,0,0,1-24.35,9.56Z"/><path class="cls-1" d="M405.36,154.55c7.41-3.54,15.55.14,17.4,7.48Z"/><path class="cls-1" d="M40,645.62l-18.1,4.47c-1.71-3.66-.85-5.74,2.73-4.87a11.78,11.78,0,0,0,10.8-2.12C37.66,641.44,38.57,642.21,40,645.62Z"/><path class="cls-1" d="M811.79,550l-6.74,1.54.34,1.15,7.75,1.49c-1.63,2.77-6,.08-4.79,4.36l-6.59-3C802.92,547,803.94,546.38,811.79,550Z"/><path class="cls-1" d="M513.84,63.5l19,1.85C530.39,71.09,521.75,71,513.84,63.5Z"/><path class="cls-1" d="M470.82,899.87,490.61,910C486.86,912.39,475,906.68,470.82,899.87Z"/><path class="cls-1" d="M240.83,68.42c2.36-5.22,16.27-13.48,20.65-11.91Z"/><path class="cls-1" d="M793.31,621.31c-2,3.49,6.26,7.75-1.32,11-.66-2.12-1.29-4.11-1.9-6.08l-5.46,1.25c-.28-.58-.57-1.15-.85-1.72l8.3-5.37Z"/><path class="cls-1" d="M767.22,577l-9.09-2.29c1.43-4,4.15-6.67,8.11-5.39C771.48,571.06,765.72,574.92,767.22,577Z"/><path class="cls-1" d="M114.12,605.84c3.64-3.41,7-.58,9,7.5h-9.27l-1-1.06C118.42,610.43,118.7,608.19,114.12,605.84Z"/><path class="cls-1" d="M109.82,593.41c.93-4.21,1.58-7.17,2.1-9.49,2.2,1.56,4.09,2.75,5.8,4.16a4.8,4.8,0,0,1,1.75,2.57c.08.43-1.27,1.47-2.1,1.65C115,592.82,112.5,593,109.82,593.41Z"/><path class="cls-1" d="M774,556.43c2.13,1.07,5.28,8.18,4.14,10.06a6,6,0,0,1-3,1.79c-1.27-1.65-3-3.44-3.18-5.32S773.17,558.81,774,556.43Z"/><path class="cls-1" d="M91.7,575.47c-3.23,5.56-8.16,6.3-15.06,4.57,1.73-1.58,2.78-3.36,4.12-3.61A97.81,97.81,0,0,1,91.7,575.47Z"/><path class="cls-1" d="M318.85,476.9a108.31,108.31,0,0,1,9.31,6c.84.65.59,2.68.85,4.08-1.26-.35-2.77-.38-3.74-1.11-2.8-2.16-5.39-4.6-8.06-6.92Z"/><path class="cls-1" d="M660.41,140.15l-9.85-13c8.76.17,7.3,8.11,11.54,11.7Z"/><path class="cls-1" d="M147.89,148.59l12.93-13.06,1.77,1.71-12.82,13.2Z"/><path class="cls-1" d="M389.41,111c-1,.88-1.79,2.11-2.92,2.54a25.6,25.6,0,0,1-5.15,1c.92-2,1.49-4.24,2.88-5.76.85-.92,3-.67,4.53-.94.18,1.12.35,2.25.54,3.37C389.29,111.11,389.41,111,389.41,111Z"/><path class="cls-1" d="M296.66,59.76l-8-.41c1.46-4.27,7-6,13.08-3.78Z"/><path class="cls-1" d="M596,96.54c3-2,5.88-4,8.95-5.86.58-.35,1.88.08,2.56.56.31.22.22,1.74-.2,2.15-2.94,2.83-6.19,5-10.41,4.72Z"/><path class="cls-1" d="M801.49,632.84c1.19-2.75,1.84-5,3.06-6.76.61-.89,2.25-1.32,3.47-1.44.48,0,1.65,1.44,1.54,2-.25,1.33-.81,3-1.81,3.69C806.22,631.44,804.21,631.82,801.49,632.84Z"/><path class="cls-1" d="M806.5,594.83c3.5-1.25,6.19-.88,7.65,2.34.26.56-1.21,2.62-2.19,2.9C807.46,601.34,807.74,597.52,806.5,594.83Z"/><path class="cls-1" d="M790.67,544.38c3.19-2.58,5.74-4.7,8.38-6.68a1.77,1.77,0,0,1,1.65.49,2.62,2.62,0,0,1,0,2.18C798.48,543.27,796.21,546.21,790.67,544.38Z"/><path class="cls-1" d="M146.16,327.73c-2.12,4.41-3.7,7.71-5.29,11l-1.85-.54c.77-3.28,1.4-6.61,2.48-9.79C141.68,327.87,143.87,328,146.16,327.73Z"/><path class="cls-1" d="M673.29,140.07c-3-5-10.38-7.12-11.2-13.63l1.3-.87Z"/><path class="cls-1" d="M793,693.18l-13.39-9.87,1-1.38,13.61,9.52Z"/><path class="cls-1" d="M751.77,567.83c-.54,1.9-.52,4.51-1.78,5.49s-3.72.21-5.66.21L743.9,572l6.24-5.27Z"/><path class="cls-1" d="M229.11,423.93l10-3.65C237.39,426,233.55,425.76,229.11,423.93Z"/><path class="cls-1" d="M399.13,13.33c-4.05.92-7.79.59-11.45-2.84,3.73,0,6.89-.13,10,.14.51,0,.87,1.84,1.3,2.84Z"/><path class="cls-1" d="M104,610.75,100.4,606l9.1-1.83.92.82Z"/><path class="cls-1" d="M294.93,143.37l-5.15,8c-.63-1.15-2.24-3.26-1.91-3.63a58.4,58.4,0,0,1,6.4-5.61Z"/><path class="cls-1" d="M457,775.17l-10.49-1.57.34-2.25,10.5,1.56C457.19,773.66,457.08,774.42,457,775.17Z"/><path class="cls-1" d="M570.74,58.31c3.46-3.75,5.52-3.74,9.45,1Z"/><path class="cls-1" d="M758.07,667.41l-11.52-8.95,1.08-1.39L759.2,666Z"/><path class="cls-1" d="M740.17,625.54l-8.94.57c3.1-4.72,5.83-4.33,8.77-2.61C740.06,624.18,740.11,624.86,740.17,625.54Z"/><path class="cls-1" d="M804.6,566.67a57.08,57.08,0,0,1,5,3.17c.16.12-.67,1.55-1,2.38l-5.28-3.17C803.69,568.25,804.14,567.46,804.6,566.67Z"/><path class="cls-1" d="M537.61,88.51l-5.19,3.33a14.39,14.39,0,0,1-1.52-2.58A16.22,16.22,0,0,1,535,86.58C535.38,86.42,536.29,87.49,537.61,88.51Z"/><path class="cls-1" d="M185.28,130.54l5.36-4.78,1.31,1L186.4,135c-.52-2.44-.76-3.55-1-4.66Z"/><path class="cls-1" d="M337.19,117.93c-1.14,1.1-2.25,3-3.44,3.08s-2.7-1.61-3.69-3.73l6.15-.91Z"/><path class="cls-1" d="M94,563.42l-6.88,3.24-.42-4,6.68-.53Z"/><path class="cls-1" d="M739.25,652.76l-8.76-6.61,1.07-1.46,8.93,6.39Z"/><path class="cls-1" d="M355.19,169.25l6.77-2.2c-.43,1.49-.41,2.94-1.13,3.6-1.13,1-2.76,1.54-4.18,2.27l-1.32-3.8Z"/><path class="cls-1" d="M102.44,571.31C96.8,567,96.71,565,101,562.86,101.4,565.35,101.83,567.82,102.44,571.31Z"/><path class="cls-1" d="M779,560.37c1.9-1.61,3.74-3.29,5.74-4.74.36-.27,1.5.24,2.06.67a1.85,1.85,0,0,1-.3,1.68c-2.08,1.32-4.26,2.48-6.4,3.7Z"/><path class="cls-1" d="M313.35,153c2.81.9,5,1,5.5,1.92s-.29,3-1.69,4.6Z"/><path class="cls-1" d="M818.28,568.22l-5.95-.86-.6-1.14c1.29-.54,2.64-1.62,3.84-1.47s2.35,1.48,3.51,2.29C818.82,567.44,818.55,567.83,818.28,568.22Z"/><path class="cls-1" d="M248.7,756.55l-12.22-6.92,1.37-2q5.35,4.53,10.73,9Z"/></g></g></svg>