<svg xmlns="http://www.w3.org/2000/svg" viewBox="0 0 324.55 216.83"><defs><style>.cls-1{fill:none;stroke:#fff;stroke-miterlimit:10;}.cls-2{fill:#fff;}</style></defs><title>Asset 4</title><g id="Layer_2" data-name="Layer 2"><g id="Layer_1-2" data-name="Layer 1"><line class="cls-1" x1="0.28" y1="216.42" x2="324.28" y2="0.42"/><line class="cls-1" x1="251.04" y1="70.57" x2="324.28" y2="21.74"/><line class="cls-1" x1="251.04" y1="93.01" x2="324.28" y2="44.18"/><line class="cls-1" x1="324.28" y1="216.42" x2="0.28" y2="0.42"/><path class="cls-2" d="M162.33,76V80h3.78v1h-3.78v4h-1.07V81h-3.78V80h3.78V76Z"/><path class="cls-2" d="M191.36,105V109h3.78v1h-3.78v4h-1.07v-4h-3.78v-1h3.78V105Z"/><path class="cls-2" d="M162.1,134.3v3.93h3.78v1H162.1v4H161v-4h-3.78v-1H161V134.3Z"/><path class="cls-2" d="M132.75,105v3.93h3.78v1h-3.78v4h-1.07v-4h-3.77v-1h3.77V105Z"/></g></g></svg>